{
  "accessors": [
    {
      "bufferView": 2,
      "componentType": 5126,
      "count": 2021,
      "max": [
        231.4623565673828,
        472.6954040527344,
        252.75949096679688
      ],
      "min": [
        -220.61483764648438,
        -483.6625061035156,
        -248.7864532470703
      ],
      "type": "VEC3"
    },
    {
      "bufferView": 2,
      "byteOffset": 24252,
      "componentType": 5126,
      "count": 2021,
      "max": [
        0.9984852075576782,
        0.9989737272262573,
        0.9989629983901978
      ],
      "min": [
        -0.9988862872123718,
        -0.9974554777145386,
        -0.999420702457428
      ],
      "type": "VEC3"
    },
    {
      "bufferView": 3,
      "componentType": 5126,
      "count": 2021,
      "max": [
        0.9550274014472961,
        0.9999879002571106,
        0.9999874234199524,
        1.0
      ],
      "min": [
        -0.9837808609008789,
        -0.7852528691291809,
        -0.9999768733978271,
        1.0
      ],
      "type": "VEC4"
    },
    {
      "bufferView": 1,
      "componentType": 5126,
      "count": 2021,
      "max": [
        0.9539625644683838,
        0.997853696346283
      ],
      "min": [
        0.0009765625,
        0.0009765625
      ],
      "type": "VEC2"
    },
    {
      "bufferView": 1,
      "byteOffset": 16168,
      "componentType": 5126,
      "count": 2021,
      "max": [
        0.9539625644683838,
        0.997853696346283
      ],
      "min": [
        0.0009765625,
        0.0009765625
      ],
      "type": "VEC2"
    },
    {
      "bufferView": 0,
      "componentType": 5125,
      "count": 7278,
      "type": "SCALAR"
    }
  ],
  "asset": {
    "extras": {
      "author": "klrxyz (https://sketchfab.com/klrxyz)",
      "license": "CC-BY-4.0 (http://creativecommons.org/licenses/by/4.0/)",
      "source": "https://sketchfab.com/3d-models/a-3d-character-with-a-multicolored-geometric-bo-af2d53a036824e1a9f584294ad5a06de",
      "title": "A 3D character with a multicolored, geometric bo"
    },
    "generator": "Sketchfab-16.14.0",
    "version": "2.0"
  },
  "bufferViews": [
    {
      "buffer": 0,
      "byteLength": 29112,
      "name": "floatBufferViews",
      "target": 34963
    },
    {
      "buffer": 0,
      "byteLength": 32336,
      "byteOffset": 29112,
      "byteStride": 8,
      "name": "floatBufferViews",
      "target": 34962
    },
    {
      "buffer": 0,
      "byteLength": 48504,
      "byteOffset": 61448,
      "byteStride": 12,
      "name": "floatBufferViews",
      "target": 34962
    },
    {
      "buffer": 0,
      "byteLength": 32336,
      "byteOffset": 109952,
      "byteStride": 16,
      "name": "floatBufferViews",
      "target": 34962
    }
  ],
  "buffers": [
    {
      "byteLength": 142288,
      "uri": "scene.bin"
    }
  ],
  "images": [
    {
      "uri": "textures/Baked_baseColor.png"
    },
    {
      "uri": "textures/Baked_normal.png"
    }
  ],
  "materials": [
    {
      "doubleSided": true,
      "name": "Baked",
      "normalTexture": {
        "index": 1,
        "texCoord": 1
      },
      "pbrMetallicRoughness": {
        "baseColorTexture": {
          "index": 0
        },
        "metallicFactor": 0.0,
        "roughnessFactor": 0.6
      }
    }
  ],
  "meshes": [
    {
      "name": "ProxyMesh156146_Baked_0",
      "primitives": [
        {
          "attributes": {
            "NORMAL": 1,
            "POSITION": 0,
            "TANGENT": 2,
            "TEXCOORD_0": 3,
            "TEXCOORD_1": 4
          },
          "indices": 5,
          "material": 0,
          "mode": 4
        }
      ]
    }
  ],
  "nodes": [
    {
      "children": [
        1
      ],
      "matrix": [
        1.0,
        0.0,
        0.0,
        0.0,
        0.0,
        2.220446049250313e-16,
        -1.0,
        0.0,
        0.0,
        1.0,
        2.220446049250313e-16,
        0.0,
        0.0,
        0.0,
        0.0,
        1.0
      ],
      "name": "Sketchfab_model"
    },
    {
      "children": [
        2
      ],
      "matrix": [
        0.0010000000474974513,
        0.0,
        0.0,
        0.0,
        0.0,
        0.0,
        0.0010000000474974513,
        0.0,
        0.0,
        -0.0010000000474974513,
        0.0,
        0.0,
        0.0,
        0.0,
        0.0,
        1.0
      ],
      "name": "1b074904c4e04615bde9e5150f8f60e3.fbx"
    },
    {
      "children": [
        3
      ],
      "name": "RootNode"
    },
    {
      "children": [
        4
      ],
      "name": "ProxyMesh156146"
    },
    {
      "mesh": 0,
      "name": "ProxyMesh156146_Baked_0"
    }
  ],
  "samplers": [
    {
      "magFilter": 9729,
      "minFilter": 9987,
      "wrapS": 10497,
      "wrapT": 10497
    }
  ],
  "scene": 0,
  "scenes": [
    {
      "name": "Sketchfab_Scene",
      "nodes": [
        0
      ]
    }
  ],
  "textures": [
    {
      "sampler": 0,
      "source": 0
    },
    {
      "sampler": 0,
      "source": 1
    }
  ]
}
